<svg xmlns="http://www.w3.org/2000/svg" xmlns:xlink="http://www.w3.org/1999/xlink" width="720" zoomAndPan="magnify" viewBox="0 0 540 540.000001" height="720" preserveAspectRatio="xMidYMid meet" version="1.0"><defs><clipPath id="db35ff1625"><path d="M 18 49.203125 L 521 49.203125 L 521 490 L 18 490 Z M 18 49.203125 " clip-rule="nonzero"/></clipPath></defs><g clip-path="url(#db35ff1625)"><path fill="#8a8a8a" d="M 79.128906 489.78125 C 69.589844 489.78125 60.339844 488.25 51.609375 485.226562 L 31.734375 478.351562 L 47.007812 463.886719 C 67.222656 444.746094 72.324219 422.664062 72.65625 406.128906 C 37.714844 367.386719 18.535156 319.058594 18.535156 269.496094 C 18.527344 148.027344 131.195312 49.203125 269.679688 49.203125 C 408.164062 49.203125 520.835938 148.027344 520.835938 269.496094 C 520.835938 390.957031 408.164062 489.773438 269.679688 489.773438 C 228.449219 489.773438 187.777344 480.839844 151.527344 463.871094 C 137.867188 473.535156 110.277344 489.78125 79.128906 489.78125 Z M 148.53125 433.878906 L 155.863281 437.585938 C 190.324219 455.011719 229.683594 464.234375 269.671875 464.234375 C 394.078125 464.234375 495.289062 376.871094 495.289062 269.496094 C 495.289062 162.109375 394.078125 74.746094 269.671875 74.746094 C 145.269531 74.746094 44.0625 162.109375 44.0625 269.496094 C 44.0625 314.121094 62.03125 357.753906 94.667969 392.339844 L 97.988281 395.859375 L 98.140625 400.695312 C 98.703125 418.054688 95.585938 441.597656 80.152344 464.234375 C 109.730469 463.761719 136.917969 443.175781 142.113281 439.019531 Z M 148.53125 433.878906 " fill-opacity="1" fill-rule="nonzero"/></g><path fill="#8a8a8a" d="M 147.863281 329.746094 C 138.496094 329.746094 130.890625 329.011719 125.015625 327.539062 C 119.152344 326.074219 115.097656 324.570312 112.871094 323.035156 C 112.308594 322.472656 112.097656 321.191406 112.230469 319.160156 C 112.367188 317.148438 112.683594 315.042969 113.175781 312.882812 C 113.664062 310.726562 114.292969 308.785156 115.0625 307.128906 C 115.828125 305.457031 116.554688 304.679688 117.261719 304.824219 C 120.898438 306.082031 124.84375 307.308594 129.101562 308.492188 C 133.359375 309.671875 138.777344 310.265625 145.339844 310.265625 C 152.050781 310.265625 157.734375 309.300781 162.425781 307.335938 C 167.101562 305.375 169.449219 301.882812 169.449219 296.855469 C 169.449219 292.507812 167.90625 288.988281 164.832031 286.269531 C 161.761719 283.550781 156.238281 280.644531 148.277344 277.585938 C 143.941406 275.894531 139.859375 274.046875 136.015625 272.019531 C 132.167969 270 128.789062 267.617188 125.851562 264.890625 C 122.914062 262.171875 120.617188 258.921875 118.9375 255.15625 C 117.257812 251.386719 116.414062 246.910156 116.414062 241.738281 C 116.414062 237.550781 117.226562 233.566406 118.828125 229.792969 C 120.429688 226.019531 122.914062 222.769531 126.265625 220.046875 C 129.617188 217.328125 133.917969 215.15625 139.160156 213.554688 C 144.402344 211.945312 150.652344 211.140625 157.917969 211.140625 C 162.664062 211.140625 166.613281 211.25 169.757812 211.453125 C 172.898438 211.664062 175.476562 211.945312 177.515625 212.296875 C 179.53125 212.648438 181.179688 213.03125 182.4375 213.453125 C 183.695312 213.875 184.882812 214.21875 186 214.5 C 186.976562 214.914062 187.46875 216.140625 187.46875 218.164062 C 187.46875 220.1875 187.183594 222.351562 186.625 224.664062 C 186.070312 226.964844 185.296875 228.992188 184.328125 230.738281 C 183.34375 232.488281 182.367188 233.222656 181.390625 232.941406 C 179.015625 232.246094 175.765625 231.476562 171.648438 230.640625 C 167.523438 229.796875 163.511719 229.382812 159.597656 229.382812 C 151.628906 229.382812 146.148438 230.507812 143.148438 232.734375 C 140.140625 234.972656 138.640625 237.972656 138.640625 241.746094 C 138.640625 245.800781 140.320312 249.050781 143.671875 251.488281 C 147.023438 253.929688 152.265625 256.414062 159.386719 258.929688 C 170.703125 263.398438 179.054688 268.53125 184.429688 274.328125 C 189.804688 280.128906 192.5 287.425781 192.5 296.230469 C 192.5 302.800781 191.242188 308.253906 188.734375 312.589844 C 186.210938 316.917969 182.859375 320.347656 178.671875 322.84375 C 174.480469 325.375 169.691406 327.148438 164.316406 328.195312 C 158.933594 329.222656 153.449219 329.746094 147.863281 329.746094 Z M 147.863281 329.746094 " fill-opacity="1" fill-rule="nonzero"/><path fill="#8a8a8a" d="M 298.957031 328.695312 C 296.023438 328.695312 294.101562 328.207031 293.203125 327.226562 C 292.285156 326.253906 291.84375 324.371094 291.84375 321.5625 L 291.84375 248.21875 C 286.253906 257.300781 281.945312 264.316406 278.9375 269.277344 C 275.925781 274.246094 273.746094 277.878906 272.34375 280.183594 C 270.945312 282.476562 270.101562 283.851562 269.8125 284.265625 C 269.539062 284.6875 269.410156 284.972656 269.410156 285.113281 C 268.160156 287.207031 267.277344 288.570312 266.792969 289.199219 C 266.296875 289.84375 265.28125 290.140625 263.746094 290.140625 L 260.394531 290.140625 C 258.582031 290.140625 257.386719 289.828125 256.832031 289.199219 C 256.277344 288.570312 255.433594 287.207031 254.316406 285.113281 L 232.9375 248.652344 L 232.9375 322.84375 C 232.9375 324.664062 232.625 326.101562 231.992188 327.148438 C 231.367188 328.195312 229.726562 328.71875 227.070312 328.71875 L 218.277344 328.71875 C 216.316406 328.71875 214.613281 328.40625 213.136719 327.773438 C 211.675781 327.148438 210.933594 325.09375 210.933594 321.585938 L 210.933594 220.980469 C 210.933594 218.183594 211.457031 216.332031 212.507812 215.425781 C 213.554688 214.519531 215.054688 214.066406 217.015625 214.066406 L 227.492188 214.066406 C 229.023438 214.066406 230.320312 214.269531 231.367188 214.691406 C 232.414062 215.113281 233.496094 216.160156 234.617188 217.832031 L 262.484375 262.261719 L 290.355469 218.253906 C 291.199219 216.714844 292.199219 215.636719 293.40625 215.003906 C 294.601562 214.371094 295.738281 214.066406 296.863281 214.066406 L 308.394531 214.066406 C 311.050781 214.066406 312.574219 214.621094 313.011719 215.738281 C 313.429688 216.863281 313.636719 218.675781 313.636719 221.191406 L 313.636719 322.609375 C 313.636719 324.703125 313.359375 326.246094 312.800781 327.230469 C 312.238281 328.214844 310.628906 328.695312 307.984375 328.695312 Z M 298.957031 328.695312 " fill-opacity="1" fill-rule="nonzero"/><path fill="#8a8a8a" d="M 368.753906 329.746094 C 359.378906 329.746094 351.78125 329.011719 345.90625 327.539062 C 340.046875 326.074219 335.984375 324.570312 333.761719 323.035156 C 333.199219 322.472656 332.988281 321.191406 333.125 319.160156 C 333.257812 317.148438 333.5625 315.042969 334.0625 312.882812 C 334.546875 310.726562 335.171875 308.785156 335.945312 307.128906 C 336.707031 305.449219 337.433594 304.679688 338.148438 304.824219 C 341.78125 306.082031 345.734375 307.308594 349.988281 308.492188 C 354.238281 309.679688 359.652344 310.265625 366.222656 310.265625 C 372.933594 310.265625 378.613281 309.300781 383.3125 307.335938 C 387.980469 305.375 390.339844 301.882812 390.339844 296.855469 C 390.339844 292.507812 388.796875 288.988281 385.71875 286.269531 C 382.640625 283.550781 377.125 280.644531 369.15625 277.585938 C 364.820312 275.894531 360.746094 274.046875 356.894531 272.019531 C 353.046875 270 349.667969 267.617188 346.722656 264.890625 C 343.792969 262.171875 341.496094 258.921875 339.816406 255.15625 C 338.128906 251.378906 337.292969 246.910156 337.292969 241.738281 C 337.292969 237.550781 338.105469 233.566406 339.699219 229.792969 C 341.308594 226.019531 343.792969 222.769531 347.144531 220.046875 C 350.496094 217.328125 354.789062 215.15625 360.03125 213.554688 C 365.28125 211.945312 371.535156 211.140625 378.789062 211.140625 C 383.542969 211.140625 387.492188 211.25 390.628906 211.453125 C 393.769531 211.664062 396.351562 211.945312 398.394531 212.296875 C 400.40625 212.648438 402.050781 213.03125 403.316406 213.453125 C 404.566406 213.867188 405.761719 214.21875 406.886719 214.5 C 407.855469 214.914062 408.347656 216.140625 408.347656 218.164062 C 408.347656 220.1875 408.0625 222.351562 407.5 224.664062 C 406.949219 226.964844 406.175781 228.992188 405.210938 230.738281 C 404.230469 232.488281 403.246094 233.222656 402.269531 232.941406 C 399.898438 232.246094 396.636719 231.476562 392.53125 230.640625 C 388.40625 229.796875 384.390625 229.382812 380.484375 229.382812 C 372.515625 229.382812 367.027344 230.507812 364.035156 232.734375 C 361.027344 234.972656 359.519531 237.972656 359.519531 241.746094 C 359.519531 245.800781 361.207031 249.050781 364.558594 251.488281 C 367.902344 253.929688 373.152344 256.414062 380.273438 258.929688 C 391.582031 263.398438 399.9375 268.53125 405.316406 274.328125 C 410.691406 280.128906 413.386719 287.425781 413.386719 296.230469 C 413.386719 302.800781 412.128906 308.253906 409.617188 312.589844 C 407.097656 316.917969 403.746094 320.347656 399.554688 322.84375 C 395.367188 325.375 390.578125 327.148438 385.203125 328.195312 C 379.804688 329.222656 374.339844 329.746094 368.753906 329.746094 Z M 368.753906 329.746094 " fill-opacity="1" fill-rule="nonzero"/></svg>