<svg xmlns="http://www.w3.org/2000/svg" xmlns:xlink="http://www.w3.org/1999/xlink" width="720" zoomAndPan="magnify" viewBox="0 0 540 540.000001" height="720" preserveAspectRatio="xMidYMid meet" version="1.0"><defs><clipPath id="5b95bead67"><path d="M 18 14.386719 L 524 14.386719 L 524 524.941406 L 18 524.941406 Z M 18 14.386719 " clip-rule="nonzero"/></clipPath></defs><g clip-path="url(#5b95bead67)"><path fill="#8a8a8a" d="M 131.179688 154.167969 C 131.183594 151.882812 131.238281 149.601562 131.355469 147.320312 C 131.46875 145.039062 131.636719 142.765625 131.863281 140.492188 C 132.089844 138.222656 132.371094 135.957031 132.707031 133.699219 C 133.046875 131.441406 133.4375 129.191406 133.882812 126.953125 C 134.332031 124.714844 134.832031 122.488281 135.390625 120.273438 C 135.945312 118.058594 136.554688 115.859375 137.21875 113.675781 C 137.882812 111.492188 138.601562 109.324219 139.371094 107.175781 C 140.140625 105.023438 140.964844 102.894531 141.839844 100.785156 C 142.714844 98.679688 143.640625 96.59375 144.617188 94.527344 C 145.59375 92.464844 146.621094 90.425781 147.699219 88.414062 C 148.773438 86.402344 149.898438 84.414062 151.074219 82.457031 C 152.25 80.5 153.46875 78.570312 154.738281 76.671875 C 156.007812 74.773438 157.324219 72.910156 158.683594 71.074219 C 160.042969 69.242188 161.445312 67.441406 162.894531 65.675781 C 164.34375 63.914062 165.835938 62.183594 167.367188 60.492188 C 168.902344 58.800781 170.476562 57.148438 172.089844 55.535156 C 173.703125 53.917969 175.355469 52.34375 177.046875 50.8125 C 178.738281 49.277344 180.46875 47.789062 182.230469 46.339844 C 183.996094 44.890625 185.796875 43.484375 187.628906 42.125 C 189.460938 40.765625 191.328125 39.449219 193.226562 38.179688 C 195.125 36.910156 197.050781 35.6875 199.007812 34.515625 C 200.96875 33.339844 202.953125 32.214844 204.964844 31.136719 C 206.980469 30.058594 209.015625 29.03125 211.082031 28.054688 C 213.144531 27.078125 215.230469 26.152344 217.339844 25.277344 C 219.445312 24.402344 221.574219 23.578125 223.726562 22.808594 C 225.875 22.039062 228.039062 21.320312 230.226562 20.65625 C 232.410156 19.992188 234.609375 19.378906 236.824219 18.824219 C 239.035156 18.265625 241.261719 17.765625 243.503906 17.316406 C 245.742188 16.871094 247.988281 16.476562 250.246094 16.140625 C 252.503906 15.804688 254.769531 15.523438 257.042969 15.296875 C 259.316406 15.070312 261.589844 14.898438 263.871094 14.785156 C 266.152344 14.671875 268.433594 14.613281 270.714844 14.609375 C 455.148438 21.132812 455.511719 286.613281 271.1875 293.699219 C 268.902344 293.707031 266.613281 293.65625 264.328125 293.546875 C 262.042969 293.441406 259.761719 293.277344 257.484375 293.058594 C 255.207031 292.839844 252.9375 292.566406 250.671875 292.234375 C 248.410156 291.902344 246.152344 291.519531 243.910156 291.078125 C 241.664062 290.636719 239.429688 290.140625 237.210938 289.585938 C 234.992188 289.035156 232.785156 288.429688 230.59375 287.773438 C 228.402344 287.113281 226.230469 286.398438 224.074219 285.632812 C 221.917969 284.867188 219.78125 284.046875 217.667969 283.175781 C 215.550781 282.304688 213.457031 281.382812 211.390625 280.410156 C 209.320312 279.433594 207.273438 278.410156 205.253906 277.335938 C 203.234375 276.261719 201.242188 275.136719 199.277344 273.964844 C 197.3125 272.792969 195.378906 271.574219 193.472656 270.304688 C 191.566406 269.039062 189.695312 267.726562 187.855469 266.363281 C 186.015625 265.003906 184.210938 263.601562 182.4375 262.152344 C 180.667969 260.707031 178.933594 259.214844 177.234375 257.679688 C 175.539062 256.148438 173.878906 254.574219 172.257812 252.957031 C 170.636719 251.34375 169.058594 249.6875 167.519531 247.996094 C 165.976562 246.304688 164.480469 244.574219 163.027344 242.808594 C 161.574219 241.042969 160.164062 239.242188 158.796875 237.40625 C 157.429688 235.570312 156.113281 233.703125 154.835938 231.800781 C 153.5625 229.902344 152.335938 227.972656 151.15625 226.011719 C 149.980469 224.050781 148.847656 222.0625 147.765625 220.042969 C 146.6875 218.027344 145.65625 215.988281 144.671875 213.921875 C 143.691406 211.851562 142.761719 209.765625 141.882812 207.652344 C 141.003906 205.539062 140.179688 203.40625 139.40625 201.253906 C 138.632812 199.097656 137.914062 196.929688 137.246094 194.738281 C 136.578125 192.550781 135.964844 190.347656 135.40625 188.128906 C 134.847656 185.910156 134.34375 183.679688 133.894531 181.4375 C 133.445312 179.191406 133.054688 176.941406 132.714844 174.675781 C 132.375 172.414062 132.09375 170.144531 131.867188 167.867188 C 131.640625 165.589844 131.46875 163.308594 131.355469 161.027344 C 131.242188 158.742188 131.183594 156.453125 131.179688 154.167969 Z M 411.949219 293.765625 C 411.023438 293.199219 410.0625 292.699219 409.066406 292.273438 C 408.070312 291.84375 407.050781 291.488281 406.003906 291.207031 C 404.957031 290.925781 403.894531 290.71875 402.816406 290.589844 C 401.742188 290.460938 400.660156 290.410156 399.578125 290.4375 C 398.492188 290.464844 397.417969 290.570312 396.347656 290.75 C 395.277344 290.933594 394.226562 291.191406 393.195312 291.523438 C 392.164062 291.855469 391.160156 292.261719 390.1875 292.738281 C 389.214844 293.214844 388.28125 293.757812 387.386719 294.371094 C 385.308594 296.058594 383.195312 297.699219 381.046875 299.296875 C 378.898438 300.890625 376.71875 302.441406 374.503906 303.941406 C 372.289062 305.445312 370.042969 306.898438 367.765625 308.300781 C 365.488281 309.707031 363.183594 311.0625 360.847656 312.367188 C 358.511719 313.675781 356.148438 314.929688 353.757812 316.132812 C 351.371094 317.335938 348.957031 318.488281 346.515625 319.589844 C 344.078125 320.6875 341.613281 321.734375 339.128906 322.730469 C 336.644531 323.722656 334.140625 324.664062 331.617188 325.550781 C 329.09375 326.4375 326.550781 327.265625 323.988281 328.042969 C 321.429688 328.820312 318.851562 329.542969 316.261719 330.207031 C 313.667969 330.871094 311.0625 331.480469 308.445312 332.035156 C 305.828125 332.589844 303.199219 333.085938 300.558594 333.527344 C 297.921875 333.964844 295.273438 334.347656 292.617188 334.675781 C 289.960938 335 287.300781 335.269531 284.632812 335.480469 C 281.964844 335.691406 279.292969 335.847656 276.621094 335.941406 C 273.945312 336.039062 271.269531 336.078125 268.59375 336.058594 C 265.917969 336.039062 263.246094 335.964844 260.574219 335.832031 C 257.902344 335.695312 255.234375 335.503906 252.570312 335.257812 C 249.90625 335.007812 247.246094 334.703125 244.597656 334.335938 C 241.945312 333.972656 239.304688 333.554688 236.667969 333.078125 C 234.035156 332.601562 231.414062 332.066406 228.804688 331.476562 C 226.195312 330.886719 223.601562 330.238281 221.019531 329.539062 C 218.4375 328.835938 215.871094 328.078125 213.320312 327.265625 C 210.769531 326.453125 208.238281 325.585938 205.726562 324.664062 C 203.214844 323.746094 200.726562 322.769531 198.253906 321.742188 C 195.785156 320.710938 193.335938 319.628906 190.914062 318.496094 C 188.492188 317.363281 186.09375 316.175781 183.71875 314.9375 C 181.347656 313.703125 179.003906 312.414062 176.6875 311.074219 C 174.367188 309.738281 172.082031 308.347656 169.824219 306.914062 C 167.566406 305.476562 165.34375 303.992188 163.148438 302.457031 C 160.957031 300.925781 158.796875 299.347656 156.671875 297.71875 C 154.546875 296.09375 152.457031 294.421875 150.402344 292.707031 C 148.855469 291.996094 147.242188 291.480469 145.566406 291.15625 C 143.890625 290.835938 142.203125 290.722656 140.5 290.8125 C 138.796875 290.902344 137.128906 291.191406 135.496094 291.6875 C 133.867188 292.179688 132.316406 292.863281 130.851562 293.734375 C 126.5625 296.585938 122.363281 299.570312 118.261719 302.679688 C 114.15625 305.789062 110.152344 309.023438 106.246094 312.382812 C 102.339844 315.742188 98.542969 319.214844 94.851562 322.808594 C 91.160156 326.398438 87.582031 330.101562 84.117188 333.914062 C 80.65625 337.726562 77.3125 341.640625 74.089844 345.660156 C 70.871094 349.675781 67.773438 353.789062 64.804688 358 C 61.835938 362.207031 59 366.503906 56.296875 370.886719 C 53.59375 375.269531 51.027344 379.734375 48.597656 384.273438 C 46.171875 388.816406 43.882812 393.429688 41.738281 398.113281 C 39.59375 402.792969 37.59375 407.539062 35.742188 412.34375 C 33.890625 417.148438 32.1875 422.007812 30.636719 426.917969 C 29.082031 431.828125 27.683594 436.78125 26.433594 441.78125 C 25.1875 446.777344 24.09375 451.808594 23.15625 456.871094 C 22.21875 461.9375 21.4375 467.023438 20.8125 472.136719 C 20.1875 477.25 19.722656 482.375 19.414062 487.515625 C 19.105469 492.65625 18.957031 497.804688 18.964844 502.953125 C 18.964844 503.65625 18.996094 504.355469 19.066406 505.054688 C 19.136719 505.753906 19.238281 506.449219 19.375 507.136719 C 19.511719 507.824219 19.679688 508.507812 19.886719 509.179688 C 20.089844 509.851562 20.324219 510.511719 20.59375 511.160156 C 20.863281 511.808594 21.160156 512.441406 21.492188 513.0625 C 21.824219 513.679688 22.183594 514.28125 22.574219 514.867188 C 22.964844 515.449219 23.382812 516.015625 23.828125 516.558594 C 24.273438 517.101562 24.742188 517.621094 25.238281 518.117188 C 25.738281 518.613281 26.257812 519.082031 26.800781 519.53125 C 27.34375 519.976562 27.90625 520.394531 28.488281 520.78125 C 29.074219 521.171875 29.675781 521.535156 30.292969 521.863281 C 30.914062 522.195312 31.546875 522.496094 32.195312 522.761719 C 32.84375 523.03125 33.507812 523.269531 34.179688 523.472656 C 34.851562 523.675781 35.53125 523.84375 36.21875 523.980469 C 36.90625 524.117188 37.601562 524.222656 38.300781 524.289062 C 39 524.359375 39.699219 524.390625 40.402344 524.390625 L 501.742188 524.390625 C 502.441406 524.390625 503.144531 524.359375 503.84375 524.289062 C 504.542969 524.222656 505.234375 524.117188 505.925781 523.980469 C 506.613281 523.84375 507.292969 523.675781 507.964844 523.472656 C 508.636719 523.269531 509.296875 523.03125 509.945312 522.761719 C 510.59375 522.496094 511.230469 522.195312 511.847656 521.863281 C 512.46875 521.535156 513.070312 521.171875 513.652344 520.78125 C 514.238281 520.394531 514.800781 519.976562 515.34375 519.53125 C 515.886719 519.085938 516.40625 518.613281 516.902344 518.117188 C 517.398438 517.621094 517.871094 517.101562 518.316406 516.558594 C 518.761719 516.015625 519.179688 515.449219 519.570312 514.867188 C 519.960938 514.28125 520.320312 513.679688 520.652344 513.0625 C 520.980469 512.441406 521.28125 511.808594 521.550781 511.160156 C 521.820312 510.511719 522.054688 509.851562 522.257812 509.179688 C 522.460938 508.507812 522.632812 507.824219 522.769531 507.136719 C 522.90625 506.449219 523.007812 505.753906 523.078125 505.054688 C 523.144531 504.355469 523.179688 503.65625 523.179688 502.953125 C 523.175781 497.816406 523.015625 492.679688 522.699219 487.550781 C 522.378906 482.421875 521.90625 477.308594 521.277344 472.207031 C 520.648438 467.105469 519.867188 462.03125 518.925781 456.976562 C 517.988281 451.925781 516.894531 446.90625 515.652344 441.921875 C 514.40625 436.933594 513.007812 431.992188 511.464844 427.089844 C 509.917969 422.191406 508.222656 417.339844 506.378906 412.542969 C 504.535156 407.746094 502.550781 403.011719 500.417969 398.335938 C 498.285156 393.660156 496.015625 389.050781 493.601562 384.515625 C 491.1875 379.976562 488.640625 375.515625 485.957031 371.136719 C 483.269531 366.753906 480.453125 362.457031 477.507812 358.246094 C 474.5625 354.039062 471.488281 349.921875 468.289062 345.898438 C 465.09375 341.875 461.773438 337.953125 458.335938 334.132812 C 454.898438 330.3125 451.351562 326.601562 447.6875 323 C 444.023438 319.394531 440.253906 315.90625 436.375 312.53125 C 432.5 309.160156 428.523438 305.90625 424.449219 302.777344 C 420.371094 299.644531 416.207031 296.640625 411.949219 293.765625 Z M 411.949219 293.765625 " fill-opacity="1" fill-rule="nonzero"/></g></svg>